{
  "accessors": [
    {
      "bufferView": 1,
      "componentType": 5126,
      "count": 22170,
      "max": [
        14.914440155029297,
        67.357627868652344,
        29.955039978027344
      ],
      "min": [
        -14.914440155029297,
        0.04893999919295311,
        -14.914440155029297
      ],
      "type": "VEC3"
    },
    {
      "bufferView": 1,
      "byteOffset": 266040,
      "componentType": 5126,
      "count": 22170,
      "max": [
        0.99994784593582153,
        0.99997347593307495,
        0.99992048740386963
      ],
      "min": [
        -0.99997895956039429,
        -0.99982714653015137,
        -0.99995595216751099
      ],
      "type": "VEC3"
    },
    {
      "bufferView": 0,
      "componentType": 5125,
      "count": 133032,
      "max": [
        22169
      ],
      "min": [
        0
      ],
      "type": "SCALAR"
    }
  ],
  "asset": {
    "extras": {
      "author": "wardd (https://sketchfab.com/wardd)",
      "license": "CC-BY-4.0 (http://creativecommons.org/licenses/by/4.0/)",
      "source": "https://sketchfab.com/models/664c74c2f6584b969ee34172adf43233",
      "title": "Gregor"
    },
    "generator": "Sketchfab-3.18.5",
    "version": "2.0"
  },
  "bufferViews": [
    {
      "buffer": 0,
      "byteLength": 532128,
      "byteOffset": 0,
      "name": "floatBufferViews",
      "target": 34963
    },
    {
      "buffer": 0,
      "byteLength": 532080,
      "byteOffset": 532128,
      "byteStride": 12,
      "name": "floatBufferViews",
      "target": 34962
    }
  ],
  "buffers": [
    {
      "byteLength": 1064208,
      "uri": "scene.bin"
    }
  ],
  "materials": [
    {
      "doubleSided": false,
      "emissiveFactor": [
        0,
        0,
        0
      ],
      "name": "Scene_-_Root",
      "pbrMetallicRoughness": {
        "baseColorFactor": [
          1,
          1,
          1,
          1
        ],
        "metallicFactor": 0.55049542679999997,
        "roughnessFactor": 0.59999999999999998
      }
    }
  ],
  "meshes": [
    {
      "name": "monk_0",
      "primitives": [
        {
          "attributes": {
            "NORMAL": 1,
            "POSITION": 0
          },
          "indices": 2,
          "material": 0,
          "mode": 4
        }
      ]
    }
  ],
  "nodes": [
    {
      "children": [
        1
      ],
      "name": "RootNode (gltf orientation matrix)",
      "rotation": [
        -0.70710678118654746,
        -0,
        -0,
        0.70710678118654757
      ]
    },
    {
      "children": [
        2
      ],
      "name": "RootNode (model correction matrix)"
    },
    {
      "children": [
        3
      ],
      "name": "Root"
    },
    {
      "children": [
        4
      ],
      "matrix": [
        0.89723000000000008,
        0,
        0,
        0,
        0,
        -0,
        0.89723000000000008,
        0,
        0,
        -0.89723000000000008,
        -0,
        0,
        0,
        0,
        -0.043910000000000012,
        1
      ],
      "name": "monk"
    },
    {
      "mesh": 0,
      "name": "monk_0"
    }
  ],
  "scene": 0,
  "scenes": [
    {
      "name": "OSG_Scene",
      "nodes": [
        0
      ]
    }
  ]
}

