{
  "accessors": [
    {
      "bufferView": 1,
      "componentType": 5126,
      "count": 65532,
      "max": [
        2.7890775203704834,
        4.157217025756836,
        9.370115280151367
      ],
      "min": [
        -4.058963298797607,
        -3.3514063358306885,
        2.738649368286133
      ],
      "type": "VEC3"
    },
    {
      "bufferView": 1,
      "byteOffset": 786384,
      "componentType": 5126,
      "count": 65532,
      "max": [
        0.9999943971633911,
        0.9998349547386169,
        0.9999727606773376
      ],
      "min": [
        -0.9999844431877136,
        -0.9998868107795715,
        -0.9998969435691833
      ],
      "type": "VEC3"
    },
    {
      "bufferView": 0,
      "componentType": 5125,
      "count": 366546,
      "type": "SCALAR"
    },
    {
      "bufferView": 1,
      "byteOffset": 1572768,
      "componentType": 5126,
      "count": 22654,
      "max": [
        2.748063564300537,
        3.128349542617798,
        9.34880542755127
      ],
      "min": [
        -3.0394816398620605,
        -3.3514063358306885,
        2.748060703277588
      ],
      "type": "VEC3"
    },
    {
      "bufferView": 1,
      "byteOffset": 1844616,
      "componentType": 5126,
      "count": 22654,
      "max": [
        0.9999977350234985,
        0.9999762773513794,
        0.9997037053108215
      ],
      "min": [
        -0.9999844431877136,
        -0.9999337196350098,
        -0.9999558329582214
      ],
      "type": "VEC3"
    },
    {
      "bufferView": 0,
      "byteOffset": 1466184,
      "componentType": 5125,
      "count": 95916,
      "type": "SCALAR"
    }
  ],
  "asset": {
    "extras": {
      "author": "Vindr Damsgard (https://sketchfab.com/vindr)",
      "license": "CC-BY-NC-ND-4.0 (http://creativecommons.org/licenses/by-nc-nd/4.0/)",
      "source": "https://sketchfab.com/3d-models/flying-puppet-doll-3013d05f49544de9bb6fd140a9e97893",
      "title": "Flying Puppet Doll"
    },
    "generator": "Sketchfab-10.51.0",
    "version": "2.0"
  },
  "bufferViews": [
    {
      "buffer": 0,
      "byteLength": 1849848,
      "name": "floatBufferViews",
      "target": 34963
    },
    {
      "buffer": 0,
      "byteLength": 2116464,
      "byteOffset": 1849848,
      "byteStride": 12,
      "name": "floatBufferViews",
      "target": 34962
    }
  ],
  "buffers": [
    {
      "byteLength": 3966312,
      "uri": "scene.bin"
    }
  ],
  "materials": [
    {
      "doubleSided": true,
      "name": "Scene_-_Root",
      "pbrMetallicRoughness": {
        "metallicFactor": 0.0,
        "roughnessFactor": 0.6
      }
    }
  ],
  "meshes": [
    {
      "name": "Object_0",
      "primitives": [
        {
          "attributes": {
            "NORMAL": 1,
            "POSITION": 0
          },
          "indices": 2,
          "material": 0,
          "mode": 4
        }
      ]
    },
    {
      "name": "Object_1",
      "primitives": [
        {
          "attributes": {
            "NORMAL": 4,
            "POSITION": 3
          },
          "indices": 5,
          "material": 0,
          "mode": 4
        }
      ]
    }
  ],
  "nodes": [
    {
      "children": [
        1
      ],
      "matrix": [
        1.0,
        0.0,
        0.0,
        0.0,
        0.0,
        2.220446049250313e-16,
        -1.0,
        0.0,
        0.0,
        1.0,
        2.220446049250313e-16,
        0.0,
        0.0,
        0.0,
        0.0,
        1.0
      ],
      "name": "Sketchfab_model"
    },
    {
      "children": [
        2,
        3
      ],
      "name": "twig doll.stl.cleaner.materialmerger.gles"
    },
    {
      "mesh": 0,
      "name": "Object_2"
    },
    {
      "mesh": 1,
      "name": "Object_3"
    }
  ],
  "scene": 0,
  "scenes": [
    {
      "name": "Sketchfab_Scene",
      "nodes": [
        0
      ]
    }
  ]
}
